<svg width="13" height="14" viewBox="0 0 13 14" fill="none" xmlns="http://www.w3.org/2000/svg">
<path d="M9.89286 9.76637L12.6235 12.9583L11.9092 13.5685L9.17857 10.3765C8.26587 11.0263 7.25149 11.3512 6.13542 11.3512C5.42113 11.3512 4.73909 11.2123 4.08929 10.9345C3.43948 10.6567 2.87897 10.2847 2.40774 9.81845C1.94147 9.34722 1.56944 8.78671 1.29167 8.1369C1.01389 7.4871 0.875 6.80506 0.875 6.09077C0.875 5.37649 1.01389 4.69444 1.29167 4.04464C1.56944 3.39484 1.94147 2.83681 2.40774 2.37054C2.87897 1.89931 3.43948 1.5248 4.08929 1.24702C4.73909 0.969245 5.42113 0.830356 6.13542 0.830356C6.8497 0.830356 7.52927 0.969245 8.17411 1.24702C8.82391 1.5248 9.38443 1.89931 9.85566 2.37054C10.3269 2.83681 10.7014 3.39484 10.9792 4.04464C11.2569 4.69444 11.3958 5.37649 11.3958 6.09077C11.3958 6.562 11.3338 7.02083 11.2098 7.46726C11.0858 7.91369 10.9122 8.33036 10.689 8.71726C10.4707 9.09921 10.2054 9.44891 9.89286 9.76637ZM4.45387 10.0714C4.98958 10.2996 5.5501 10.4137 6.13542 10.4137C6.72073 10.4137 7.27877 10.2996 7.80952 10.0714C8.34524 9.84325 8.80655 9.53571 9.19345 9.14881C9.58036 8.7619 9.8879 8.30308 10.1161 7.77232C10.3442 7.23661 10.4583 6.67609 10.4583 6.09077C10.4583 5.61954 10.3839 5.16567 10.2351 4.72917C10.0913 4.2877 9.88542 3.89087 9.61756 3.53869C9.3497 3.18155 9.03968 2.87153 8.6875 2.60863C8.33532 2.34077 7.93849 2.13492 7.49702 1.99107C7.05556 1.84226 6.60169 1.76786 6.13542 1.76786C5.5501 1.76786 4.98958 1.88194 4.45387 2.11012C3.92312 2.33829 3.46429 2.64583 3.07738 3.03274C2.69048 3.41964 2.38294 3.88095 2.15476 4.41667C1.92659 4.94742 1.8125 5.50546 1.8125 6.09077C1.8125 6.67609 1.92659 7.23661 2.15476 7.77232C2.38294 8.30308 2.69048 8.7619 3.07738 9.14881C3.46429 9.53571 3.92312 9.84325 4.45387 10.0714Z" fill="white"/>
</svg>
